<?xml version="1.0" encoding="utf-8"?>
<!-- Generator: Adobe Illustrator 27.8.0, SVG Export Plug-In . SVG Version: 6.00 Build 0)  -->
<svg version="1.1" id="Layer_1" xmlns="http://www.w3.org/2000/svg" xmlns:xlink="http://www.w3.org/1999/xlink" x="0px" y="0px"
	 viewBox="0 0 841.89 595.28" style="enable-background:new 0 0 841.89 595.28;" xml:space="preserve">
<style type="text/css">
	.st0{fill:#D1D3D4;}
	.st1{fill:#00D1F0;stroke:#00D1F0;stroke-miterlimit:8;}
</style>
<path class="st0" d="M543.63,337.19c0,0.18-0.09,0.28-0.37,0.28h-2.31c-0.18,0-0.37-0.09-0.37-0.28v-9.42c0-0.09,0-0.09-0.09-0.09
	s-0.09,0-0.09,0.09l-1.66,4.25c-0.09,0.18-0.18,0.28-0.46,0.28h-1.57c-0.18,0-0.37-0.09-0.46-0.28l-1.66-4.25
	c0-0.09,0-0.09-0.09-0.09s-0.09,0-0.09,0.09v9.42c0,0.18-0.09,0.28-0.37,0.28h-2.22c-0.18,0-0.37-0.09-0.37-0.28v-18.37
	c0-0.28,0.09-0.37,0.37-0.37h2.31c0.18,0,0.37,0.09,0.46,0.28l2.86,7.66c0,0.09,0,0.09,0.09,0.09s0.09,0,0.09-0.09l2.86-7.66
	c0.09-0.18,0.18-0.28,0.46-0.28h2.22c0.28,0,0.46,0.09,0.46,0.28L543.63,337.19L543.63,337.19z M556.56,337.19l-3.51-18.56
	c0-0.18-0.18-0.28-0.37-0.28h-2.22c-0.18,0-0.28,0.09-0.37,0.37l-3.51,18.47v0.09c0,0.18,0.09,0.28,0.28,0.28h2.4
	c0.18,0,0.37-0.09,0.37-0.28l0.46-2.4c0-0.18,0.18-0.28,0.37-0.28h2.22c0.18,0,0.37,0.09,0.37,0.28l0.46,2.4
	c0,0.18,0.18,0.28,0.37,0.28h2.4C556.46,337.47,556.56,337.37,556.56,337.19L556.56,337.19z M552.4,331.19
	c0,0.18-0.09,0.28-0.28,0.28h-1.11c-0.18,0-0.28-0.09-0.28-0.28c0,0.09,0.18-1.02,0.74-3.6c0-0.09,0.09-0.09,0.18-0.09
	s0.18,0,0.18,0.09C552.12,330.17,552.4,331.37,552.4,331.19L552.4,331.19z M569.48,332.85v-4.99c0-0.18-0.09-0.37-0.28-0.37h-4.52
	c-0.18,0-0.37,0.09-0.37,0.37v2.31c0,0.18,0.09,0.37,0.37,0.37h1.57c0.18,0,0.28,0.09,0.28,0.28v2.03c0,0.46-0.18,0.92-0.55,1.29
	c-0.37,0.37-0.74,0.55-1.29,0.55h-0.37c-0.46,0-0.92-0.18-1.29-0.55s-0.55-0.74-0.55-1.29v-9.88c0-0.46,0.18-0.92,0.55-1.29
	s0.74-0.55,1.29-0.55h0.37c0.46,0,0.92,0.18,1.29,0.55c0.37,0.37,0.55,0.74,0.55,1.29V325c0,0.18,0.09,0.28,0.28,0.28h2.4
	c0.18,0,0.28-0.09,0.28-0.28v-2.03c0-1.38-0.46-2.49-1.38-3.42c-0.92-0.92-2.03-1.38-3.42-1.38h-0.37c-1.29,0-2.49,0.46-3.42,1.38
	c-0.92,0.92-1.38,2.03-1.38,3.42v9.88c0,1.29,0.46,2.49,1.38,3.42c0.92,0.92,2.03,1.38,3.42,1.38h0.37c1.29,0,2.49-0.46,3.42-1.38
	C569.02,335.34,569.48,334.24,569.48,332.85L569.48,332.85z M582.41,332.67v-9.51c0-1.38-0.46-2.49-1.38-3.42
	c-0.92-0.92-2.03-1.38-3.42-1.38h-4.89c-0.18,0-0.28,0.09-0.28,0.28v18.47c0,0.18,0.09,0.28,0.28,0.28h4.89
	c1.29,0,2.49-0.46,3.42-1.38C581.95,335.16,582.41,334.05,582.41,332.67L582.41,332.67z M579.45,332.67c0,0.46-0.18,0.92-0.55,1.29
	s-0.74,0.55-1.29,0.55h-1.85c-0.18,0-0.28-0.09-0.28-0.28v-12.46c0-0.18,0.09-0.28,0.28-0.28h1.85c0.46,0,0.92,0.18,1.29,0.55
	s0.55,0.74,0.55,1.29V332.67L579.45,332.67z M595.34,337.19v-2.4c0-0.18-0.09-0.28-0.28-0.28h-6.37c-0.18,0-0.37-0.09-0.37-0.28
	v-4.43c0-0.18,0.09-0.28,0.37-0.28h5.54c0.18,0,0.28-0.09,0.28-0.37v-2.31c0-0.18-0.09-0.37-0.28-0.37h-5.54
	c-0.18,0-0.37-0.09-0.37-0.28v-4.43c0-0.18,0.09-0.28,0.37-0.28h6.37c0.18,0,0.28-0.09,0.28-0.28v-2.4c0-0.18-0.09-0.28-0.28-0.28
	h-9.33c-0.18,0-0.28,0.09-0.28,0.28v18.47c0,0.18,0.09,0.28,0.28,0.28h9.33C595.24,337.47,595.34,337.37,595.34,337.19
	L595.34,337.19z M608.26,332.67v-1.48c0-1.02-0.37-2.03-1.11-3.05c-0.09-0.09-0.09-0.18-0.09-0.28c0-0.09,0-0.18,0.09-0.28
	c0.74-1.02,1.11-2.03,1.11-3.05v-1.38c0-1.38-0.46-2.49-1.38-3.42c-0.92-0.92-2.03-1.38-3.42-1.38h-4.89
	c-0.18,0-0.28,0.09-0.28,0.28v18.47c0,0.18,0.09,0.28,0.28,0.28h4.89c1.29,0,2.49-0.46,3.42-1.38
	C607.8,335.16,608.26,334.05,608.26,332.67L608.26,332.67z M605.31,324.63c0,0.46-0.18,0.92-0.55,1.29
	c-0.37,0.37-0.74,0.55-1.29,0.55h-1.85c-0.18,0-0.28-0.09-0.28-0.28v-4.43c0-0.18,0.09-0.28,0.28-0.28h1.85
	c0.46,0,0.92,0.18,1.29,0.55s0.55,0.74,0.55,1.29V324.63L605.31,324.63z M605.31,332.67c0,0.46-0.18,0.92-0.55,1.29
	c-0.37,0.37-0.74,0.55-1.29,0.55h-1.85c-0.18,0-0.28-0.09-0.28-0.28v-4.43c0-0.18,0.09-0.28,0.28-0.28h1.85
	c0.46,0,0.92,0.18,1.29,0.55s0.55,0.74,0.55,1.29V332.67L605.31,332.67z M621.19,332.94v-14.22c0-0.18-0.09-0.28-0.28-0.28h-2.4
	c-0.18,0-0.28,0.09-0.28,0.28v14.22c0,0.46-0.18,0.92-0.55,1.29c-0.37,0.37-0.74,0.55-1.29,0.55h-0.37c-0.46,0-0.92-0.18-1.29-0.55
	c-0.37-0.37-0.55-0.74-0.55-1.29v-14.22c0-0.18-0.09-0.28-0.28-0.28h-2.4c-0.18,0-0.28,0.09-0.28,0.28v14.22
	c0,1.29,0.46,2.49,1.38,3.42c0.92,0.92,2.03,1.38,3.42,1.38h0.37c1.29,0,2.49-0.46,3.42-1.38
	C620.73,335.44,621.19,334.24,621.19,332.94L621.19,332.94z M634.11,337.28l-1.11-3.88c-0.65-2.22-1.02-3.42-1.02-3.51
	c0-0.18,0.09-0.28,0.18-0.37c1.29-1.11,1.85-2.31,1.85-3.79v-2.59c0-1.29-0.46-2.49-1.38-3.42c-0.92-0.92-2.03-1.38-3.42-1.38h-4.89
	c-0.18,0-0.28,0.09-0.28,0.37v18.47c0,0.18,0.09,0.28,0.28,0.28h2.4c0.18,0,0.28-0.09,0.28-0.28v-6.37c0-0.18,0.09-0.28,0.37-0.28
	h1.29c0.18,0,0.37,0.09,0.46,0.28l1.85,6.37c0.09,0.18,0.18,0.28,0.37,0.28h2.49C634.02,337.47,634.11,337.37,634.11,337.28
	L634.11,337.28z M631.16,325.74c0,0.46-0.18,0.92-0.55,1.29c-0.37,0.37-0.74,0.55-1.29,0.55h-1.85c-0.18,0-0.37-0.09-0.37-0.37
	v-5.54c0-0.18,0.09-0.28,0.37-0.28h1.85c0.46,0,0.92,0.18,1.29,0.55s0.55,0.74,0.55,1.29V325.74L631.16,325.74z M647.04,332.85
	v-4.99c0-0.18-0.09-0.37-0.28-0.37h-4.52c-0.18,0-0.37,0.09-0.37,0.37v2.31c0,0.18,0.09,0.37,0.37,0.37h1.57
	c0.18,0,0.28,0.09,0.28,0.28v2.03c0,0.46-0.18,0.92-0.55,1.29s-0.74,0.55-1.29,0.55h-0.37c-0.46,0-0.92-0.18-1.29-0.55
	c-0.37-0.37-0.55-0.74-0.55-1.29v-9.88c0-0.46,0.18-0.92,0.55-1.29s0.74-0.55,1.29-0.55h0.37c0.46,0,0.92,0.18,1.29,0.55
	c0.37,0.37,0.55,0.74,0.55,1.29V325c0,0.18,0.09,0.28,0.28,0.28h2.4c0.18,0,0.28-0.09,0.28-0.28v-2.03c0-1.38-0.46-2.49-1.38-3.42
	c-0.92-0.92-2.03-1.38-3.42-1.38h-0.37c-1.29,0-2.49,0.46-3.42,1.38c-0.92,0.92-1.38,2.03-1.38,3.42v9.88
	c0,1.29,0.46,2.49,1.38,3.42s2.03,1.38,3.42,1.38h0.37c1.29,0,2.49-0.46,3.42-1.38C646.58,335.34,647.04,334.24,647.04,332.85
	L647.04,332.85z M541.51,292.22v-2.31c0-0.18-0.09-0.28-0.28-0.28h-9.42c-0.18,0-0.28,0.09-0.28,0.28v18.47
	c0,0.18,0.09,0.28,0.28,0.28h2.4c0.18,0,0.28-0.09,0.28-0.28V301c0-0.18,0.09-0.28,0.37-0.28h5.54c0.18,0,0.28-0.09,0.28-0.37v-2.31
	c0-0.18-0.09-0.37-0.28-0.37h-5.54c-0.18,0-0.37-0.09-0.37-0.28v-4.43c0-0.18,0.09-0.28,0.37-0.28h6.37
	C541.41,292.59,541.51,292.5,541.51,292.22L541.51,292.22z M554.43,304.14v-14.22c0-0.18-0.09-0.28-0.28-0.28h-2.4
	c-0.18,0-0.28,0.09-0.28,0.28v14.22c0,0.46-0.18,0.92-0.55,1.29s-0.74,0.55-1.29,0.55h-0.37c-0.46,0-0.92-0.18-1.29-0.55
	s-0.55-0.74-0.55-1.29v-14.22c0-0.18-0.09-0.28-0.28-0.28h-2.4c-0.18,0-0.28,0.09-0.28,0.28v14.22c0,1.29,0.46,2.49,1.38,3.42
	c0.92,0.92,2.03,1.38,3.42,1.38h0.37c1.29,0,2.49-0.46,3.42-1.38C553.97,306.54,554.43,305.43,554.43,304.14L554.43,304.14z
	 M567.36,308.47l-1.11-3.88c-0.65-2.22-1.02-3.42-1.02-3.51c0-0.18,0.09-0.28,0.18-0.37c1.29-1.11,1.85-2.31,1.85-3.79v-2.59
	c0-1.29-0.46-2.49-1.38-3.42c-0.92-0.92-2.03-1.38-3.42-1.38h-4.8c-0.18,0-0.28,0.09-0.28,0.37v18.47c0,0.18,0.09,0.28,0.28,0.28
	h2.4c0.18,0,0.28-0.09,0.28-0.28v-6.37c0-0.18,0.09-0.28,0.37-0.28H562c0.18,0,0.37,0.09,0.46,0.28l1.85,6.37
	c0.09,0.18,0.18,0.28,0.37,0.28h2.49C567.27,308.66,567.36,308.57,567.36,308.47L567.36,308.47z M564.31,296.93
	c0,0.46-0.18,0.92-0.55,1.29s-0.74,0.55-1.29,0.55h-1.85c-0.18,0-0.37-0.09-0.37-0.37v-5.54c0-0.18,0.09-0.28,0.37-0.28h1.85
	c0.46,0,0.92,0.18,1.29,0.55s0.55,0.74,0.55,1.29V296.93L564.31,296.93z M584.62,308.29v-18.37c0-0.18-0.09-0.37-0.28-0.37h-2.4
	c-0.18,0-0.28,0.09-0.28,0.37v9.51c0,0.09,0,0.09-0.09,0.09s-0.09,0-0.09-0.09l-3.69-9.6c-0.09-0.18-0.28-0.28-0.46-0.28h-2.31
	c-0.18,0-0.37,0.18-0.37,0.46v18.37c0,0.18,0.09,0.37,0.28,0.37h2.4c0.18,0,0.28-0.09,0.28-0.37v-9.51c0-0.09,0-0.09,0.09-0.09
	c0.09,0,0.09,0,0.09,0.09l3.69,9.6c0.09,0.18,0.18,0.28,0.46,0.28h2.12C584.53,308.66,584.62,308.57,584.62,308.29L584.62,308.29z
	 M597.55,308.38v-2.4c0-0.18-0.09-0.28-0.28-0.28h-6.37c-0.18,0-0.37-0.09-0.37-0.28V301c0-0.18,0.09-0.28,0.37-0.28h5.54
	c0.18,0,0.28-0.09,0.28-0.37v-2.31c0-0.18-0.09-0.37-0.28-0.37h-5.54c-0.18,0-0.37-0.09-0.37-0.28v-4.43c0-0.18,0.09-0.28,0.37-0.28
	h6.37c0.18,0,0.28-0.09,0.28-0.28v-2.49c0-0.18-0.09-0.28-0.28-0.28h-9.33c-0.18,0-0.28,0.09-0.28,0.28v18.47
	c0,0.18,0.09,0.28,0.28,0.28h9.33C597.46,308.66,597.55,308.57,597.55,308.38L597.55,308.38z M610.48,304.14v-14.22
	c0-0.18-0.09-0.28-0.28-0.28h-2.4c-0.18,0-0.28,0.09-0.28,0.28v14.22c0,0.46-0.18,0.92-0.55,1.29c-0.37,0.37-0.74,0.55-1.29,0.55
	h-0.37c-0.46,0-0.92-0.18-1.29-0.55c-0.37-0.37-0.55-0.74-0.55-1.29v-14.22c0-0.18-0.09-0.28-0.28-0.28h-2.4
	c-0.18,0-0.28,0.09-0.28,0.28v14.22c0,1.29,0.46,2.49,1.38,3.42c0.92,0.92,2.03,1.38,3.42,1.38h0.37c1.29,0,2.49-0.46,3.42-1.38
	C610.02,306.54,610.48,305.43,610.48,304.14L610.48,304.14z M623.4,308.47l-1.11-3.88c-0.65-2.22-1.02-3.42-1.02-3.51
	c0-0.18,0.09-0.28,0.18-0.37c1.29-1.11,1.85-2.31,1.85-3.79v-2.59c0-1.29-0.46-2.49-1.38-3.42s-2.03-1.38-3.42-1.38h-4.89
	c-0.18,0-0.28,0.09-0.28,0.37v18.47c0,0.18,0.09,0.28,0.28,0.28h2.4c0.18,0,0.28-0.09,0.28-0.28v-6.37c0-0.18,0.09-0.28,0.37-0.28
	h1.29c0.18,0,0.37,0.09,0.46,0.28l1.85,6.37c0.09,0.18,0.18,0.28,0.37,0.28h2.49C623.4,308.66,623.4,308.57,623.4,308.47
	L623.4,308.47z M620.45,296.93c0,0.46-0.18,0.92-0.55,1.29c-0.37,0.37-0.74,0.55-1.29,0.55h-1.85c-0.18,0-0.37-0.09-0.37-0.37v-5.54
	c0-0.18,0.09-0.28,0.37-0.28h1.85c0.46,0,0.92,0.18,1.29,0.55c0.37,0.37,0.55,0.74,0.55,1.29V296.93L620.45,296.93z M636.33,304.04
	v-9.88c0-1.38-0.46-2.49-1.38-3.42c-0.92-0.92-2.03-1.38-3.42-1.38h-0.37c-1.29,0-2.49,0.46-3.42,1.38
	c-0.92,0.92-1.38,2.03-1.38,3.42v9.88c0,1.29,0.46,2.49,1.38,3.42c0.92,0.92,2.03,1.38,3.42,1.38h0.37c1.29,0,2.49-0.46,3.42-1.38
	C635.87,306.54,636.33,305.43,636.33,304.04L636.33,304.04z M633.38,304.04c0,0.46-0.18,0.92-0.55,1.29
	c-0.37,0.37-0.74,0.55-1.29,0.55h-0.37c-0.46,0-0.92-0.18-1.29-0.55c-0.37-0.37-0.55-0.74-0.55-1.29v-9.88
	c0-0.46,0.18-0.92,0.55-1.29c0.37-0.37,0.74-0.55,1.29-0.55h0.37c0.46,0,0.92,0.18,1.29,0.55s0.55,0.74,0.55,1.29V304.04
	L633.38,304.04z M649.26,303.86v-1.48c0-1.02-0.37-2.03-1.11-3.05c-0.09-0.09-0.09-0.18-0.09-0.28c0-0.09,0-0.18,0.09-0.28
	c0.74-1.02,1.11-2.03,1.11-3.05v-1.48c0-1.38-0.46-2.49-1.38-3.42c-0.92-0.92-2.03-1.38-3.42-1.38h-4.89
	c-0.18,0-0.28,0.09-0.28,0.28v18.47c0,0.18,0.09,0.28,0.28,0.28h4.89c1.29,0,2.49-0.46,3.42-1.38
	C648.79,306.35,649.26,305.24,649.26,303.86L649.26,303.86z M646.3,295.83c0,0.46-0.18,0.92-0.55,1.29
	c-0.37,0.37-0.74,0.55-1.29,0.55h-1.85c-0.18,0-0.28-0.09-0.28-0.28v-4.43c0-0.18,0.09-0.28,0.28-0.28h1.85
	c0.46,0,0.92,0.18,1.29,0.55c0.37,0.37,0.55,0.74,0.55,1.29V295.83L646.3,295.83z M646.3,303.86c0,0.46-0.18,0.92-0.55,1.29
	c-0.37,0.37-0.74,0.55-1.29,0.55h-1.85c-0.18,0-0.28-0.09-0.28-0.28V301c0-0.18,0.09-0.28,0.28-0.28h1.85
	c0.46,0,0.92,0.18,1.29,0.55c0.37,0.37,0.55,0.74,0.55,1.29V303.86L646.3,303.86z M655.26,308.38v-18.47c0-0.18-0.09-0.28-0.28-0.28
	h-2.4c-0.18,0-0.28,0.09-0.28,0.28v18.47c0,0.18,0.09,0.28,0.28,0.28h2.4C655.07,308.66,655.26,308.57,655.26,308.38L655.26,308.38z
	 M668.09,304.04v-9.88c0-1.38-0.46-2.49-1.38-3.42c-0.92-0.92-2.03-1.38-3.42-1.38h-0.37c-1.29,0-2.49,0.46-3.42,1.38
	c-0.92,0.92-1.38,2.03-1.38,3.42v9.88c0,1.29,0.46,2.49,1.38,3.42c0.92,0.92,2.03,1.38,3.42,1.38h0.37c1.29,0,2.49-0.46,3.42-1.38
	C667.63,306.54,668.09,305.43,668.09,304.04L668.09,304.04z M665.14,304.04c0,0.46-0.18,0.92-0.55,1.29
	c-0.37,0.37-0.74,0.55-1.29,0.55h-0.37c-0.46,0-0.92-0.18-1.29-0.55s-0.55-0.74-0.55-1.29v-9.88c0-0.46,0.18-0.92,0.55-1.29
	c0.37-0.37,0.74-0.55,1.29-0.55h0.37c0.46,0,0.92,0.18,1.29,0.55c0.37,0.37,0.55,0.74,0.55,1.29V304.04L665.14,304.04z
	 M681.02,308.38v-2.4c0-0.18-0.09-0.28-0.28-0.28h-6.37c-0.18,0-0.28-0.09-0.28-0.28v-15.51c0-0.18-0.09-0.28-0.28-0.28h-2.4
	c-0.18,0-0.28,0.09-0.28,0.28v18.47c0,0.18,0.09,0.28,0.28,0.28h9.33C680.93,308.66,681.02,308.57,681.02,308.38L681.02,308.38z
	 M693.94,304.04v-9.88c0-1.38-0.46-2.49-1.38-3.42c-0.92-0.92-2.03-1.38-3.42-1.38h-0.37c-1.29,0-2.49,0.46-3.42,1.38
	c-0.92,0.92-1.38,2.03-1.38,3.42v9.88c0,1.29,0.46,2.49,1.38,3.42c0.92,0.92,2.03,1.38,3.42,1.38h0.37c1.29,0,2.49-0.46,3.42-1.38
	C693.48,306.54,693.94,305.43,693.94,304.04L693.94,304.04z M690.99,304.04c0,0.46-0.18,0.92-0.55,1.29
	c-0.37,0.37-0.74,0.55-1.29,0.55h-0.37c-0.46,0-0.92-0.18-1.29-0.55s-0.55-0.74-0.55-1.29v-9.88c0-0.46,0.18-0.92,0.55-1.29
	c0.37-0.37,0.74-0.55,1.29-0.55h0.37c0.46,0,0.92,0.18,1.29,0.55c0.37,0.37,0.55,0.74,0.55,1.29V304.04L690.99,304.04z
	 M706.87,304.14v-4.99c0-0.18-0.09-0.37-0.28-0.37h-4.52c-0.18,0-0.37,0.09-0.37,0.37v2.31c0,0.18,0.09,0.37,0.37,0.37h1.57
	c0.18,0,0.28,0.09,0.28,0.28v2.03c0,0.46-0.18,0.92-0.55,1.29s-0.74,0.55-1.29,0.55h-0.37c-0.46,0-0.92-0.18-1.29-0.55
	c-0.37-0.37-0.55-0.74-0.55-1.29v-9.97c0-0.46,0.18-0.92,0.55-1.29s0.74-0.55,1.29-0.55h0.37c0.46,0,0.92,0.18,1.29,0.55
	c0.37,0.37,0.55,0.74,0.55,1.29v2.03c0,0.18,0.09,0.28,0.28,0.28h2.4c0.18,0,0.28-0.09,0.28-0.28v-2.03c0-1.38-0.46-2.49-1.38-3.42
	c-0.92-0.92-2.03-1.38-3.42-1.38h-0.37c-1.29,0-2.49,0.46-3.42,1.38c-0.92,0.92-1.38,2.03-1.38,3.42v9.88
	c0,1.29,0.46,2.49,1.38,3.42c0.92,0.92,2.03,1.38,3.42,1.38h0.37c1.29,0,2.49-0.46,3.42-1.38
	C706.41,306.54,706.87,305.43,706.87,304.14L706.87,304.14z M712.87,308.38v-18.47c0-0.18-0.09-0.28-0.28-0.28h-2.4
	c-0.18,0-0.28,0.09-0.28,0.28v18.47c0,0.18,0.09,0.28,0.28,0.28h2.4C712.69,308.66,712.87,308.57,712.87,308.38L712.87,308.38z
	 M725.71,308.38v-2.4c0-0.18-0.09-0.28-0.28-0.28h-6.37c-0.18,0-0.37-0.09-0.37-0.28V301c0-0.18,0.09-0.28,0.37-0.28h5.54
	c0.18,0,0.28-0.09,0.28-0.37v-2.31c0-0.18-0.09-0.37-0.28-0.37h-5.54c-0.18,0-0.37-0.09-0.37-0.28v-4.43c0-0.18,0.09-0.28,0.37-0.28
	h6.37c0.18,0,0.28-0.09,0.28-0.28v-2.49c0-0.18-0.09-0.28-0.28-0.28h-9.33c-0.18,0-0.28,0.09-0.28,0.28v18.47
	c0,0.18,0.09,0.28,0.28,0.28h9.33C725.61,308.66,725.71,308.57,725.71,308.38L725.71,308.38z M541.51,279.67v-2.4
	c0-0.18-0.09-0.28-0.28-0.28h-6.37c-0.18,0-0.28-0.09-0.28-0.28V261.2c0-0.18-0.09-0.28-0.28-0.28h-2.49
	c-0.18,0-0.28,0.09-0.28,0.28v18.47c0,0.18,0.09,0.28,0.28,0.28h9.33C541.41,279.94,541.51,279.85,541.51,279.67L541.51,279.67z
	 M554.43,279.67v-2.4c0-0.18-0.09-0.28-0.28-0.28h-6.37c-0.18,0-0.37-0.09-0.37-0.28v-4.43c0-0.18,0.09-0.28,0.37-0.28h5.54
	c0.18,0,0.28-0.09,0.28-0.37v-2.31c0-0.18-0.09-0.37-0.28-0.37h-5.54c-0.18,0-0.37-0.09-0.37-0.28v-4.43c0-0.18,0.09-0.28,0.37-0.28
	h6.37c0.18,0,0.28-0.09,0.28-0.28v-2.4c0-0.18-0.09-0.28-0.28-0.28h-9.42c-0.18,0-0.28,0.09-0.28,0.28v18.47
	c0,0.18,0.09,0.28,0.28,0.28h9.33C554.34,279.94,554.43,279.85,554.43,279.67L554.43,279.67z M560.34,279.67V261.2
	c0-0.18-0.09-0.28-0.28-0.28h-2.4c-0.18,0-0.28,0.09-0.28,0.28v18.47c0,0.18,0.09,0.28,0.28,0.28h2.4
	C560.25,279.94,560.34,279.85,560.34,279.67L560.34,279.67z M573.27,275.14v-1.48c0-1.02-0.37-2.03-1.11-3.05
	c-0.09-0.09-0.09-0.18-0.09-0.28c0-0.09,0-0.18,0.09-0.28c0.74-1.02,1.11-2.03,1.11-3.05v-1.48c0-1.38-0.46-2.49-1.38-3.42
	c-0.92-0.92-2.03-1.38-3.42-1.38h-4.89c-0.18,0-0.28,0.09-0.28,0.28v18.47c0,0.18,0.09,0.28,0.28,0.28h4.89
	c1.29,0,2.49-0.46,3.42-1.38C572.81,277.64,573.27,276.53,573.27,275.14L573.27,275.14z M570.22,267.11c0,0.46-0.18,0.92-0.55,1.29
	s-0.74,0.55-1.29,0.55h-1.85c-0.18,0-0.28-0.09-0.28-0.28v-4.43c0-0.18,0.09-0.28,0.28-0.28h1.85c0.46,0,0.92,0.18,1.29,0.55
	s0.55,0.74,0.55,1.29V267.11L570.22,267.11z M570.22,275.14c0,0.46-0.18,0.92-0.55,1.29s-0.74,0.55-1.29,0.55h-1.85
	c-0.18,0-0.28-0.09-0.28-0.28v-4.43c0-0.18,0.09-0.28,0.28-0.28h1.85c0.46,0,0.92,0.18,1.29,0.55s0.55,0.74,0.55,1.29V275.14
	L570.22,275.14z M586.19,279.58V261.2c0-0.18-0.09-0.37-0.28-0.37h-2.4c-0.18,0-0.28,0.09-0.28,0.37v9.51c0,0.09,0,0.09-0.09,0.09
	s-0.09,0-0.09-0.09l-3.69-9.6c-0.09-0.18-0.28-0.28-0.46-0.28h-2.31c-0.18,0-0.37,0.18-0.37,0.46v18.37c0,0.18,0.09,0.37,0.28,0.37
	h2.4c0.18,0,0.28-0.09,0.28-0.37v-9.6c0-0.09,0-0.09,0.09-0.09s0.09,0,0.09,0.09l3.69,9.6c0.09,0.18,0.18,0.28,0.46,0.28h2.12
	C586.01,279.94,586.19,279.85,586.19,279.58L586.19,279.58z M592.1,279.67V261.2c0-0.18-0.09-0.28-0.28-0.28h-2.4
	c-0.18,0-0.28,0.09-0.28,0.28v18.47c0,0.18,0.09,0.28,0.28,0.28h2.4C592.01,279.94,592.1,279.85,592.1,279.67L592.1,279.67z
	 M605.03,279.67v-2.4c0-0.18-0.09-0.28-0.37-0.28h-5.82c-0.09,0-0.18-0.09-0.18-0.18l2.95-6.28c2.03-4.25,3.14-6.56,3.32-6.92
	c0.09-0.09,0.09-0.18,0.09-0.37v-2.12c0-0.18-0.09-0.28-0.28-0.28h-9.33c-0.18,0-0.28,0.09-0.28,0.28v2.4
	c0,0.18,0.09,0.28,0.28,0.28h5.82c0.09,0,0.18,0.09,0.18,0.18c0,0.18-2.12,4.52-6.28,13.11c-0.09,0.09-0.09,0.18-0.09,0.37v2.22
	c0,0.18,0.09,0.28,0.28,0.28h9.33C604.94,279.94,605.03,279.85,605.03,279.67L605.03,279.67z M617.96,271.54v-2.31
	c0-0.18-0.09-0.37-0.28-0.37h-9.33c-0.18,0-0.28,0.09-0.28,0.37v2.31c0,0.18,0.09,0.37,0.28,0.37h9.33
	C617.86,271.91,617.96,271.82,617.96,271.54L617.96,271.54z M623.87,279.67V261.2c0-0.18-0.09-0.28-0.28-0.28h-2.4
	c-0.18,0-0.28,0.09-0.28,0.28v18.47c0,0.18,0.09,0.28,0.28,0.28h2.4C623.77,279.94,623.87,279.85,623.87,279.67L623.87,279.67z
	 M636.79,279.58V261.2c0-0.18-0.09-0.37-0.28-0.37h-2.4c-0.18,0-0.28,0.09-0.28,0.37v9.51c0,0.09,0,0.09-0.09,0.09
	c-0.09,0-0.09,0-0.09-0.09l-3.69-9.6c-0.09-0.18-0.28-0.28-0.46-0.28h-2.31c-0.18,0-0.37,0.18-0.37,0.46v18.37
	c0,0.18,0.09,0.37,0.28,0.37h2.4c0.18,0,0.28-0.09,0.28-0.37v-9.6c0-0.09,0-0.09,0.09-0.09c0.09,0,0.09,0,0.09,0.09l3.69,9.6
	c0.09,0.18,0.18,0.28,0.46,0.28h2.12C636.61,279.94,636.79,279.85,636.79,279.58L636.79,279.58z M649.72,275.33
	c0-1.75-0.65-3.14-1.85-4.25l-4.34-3.79c-0.55-0.46-0.83-1.11-0.83-1.94c0-0.46,0.18-0.92,0.55-1.29s0.74-0.55,1.29-0.55h0.37
	c0.46,0,0.92,0.18,1.29,0.55c0.37,0.37,0.55,0.74,0.55,1.29v1.66c0,0.18,0.09,0.37,0.28,0.37h2.4c0.18,0,0.28-0.09,0.28-0.37v-1.66
	c0-1.38-0.46-2.49-1.38-3.42c-0.92-0.92-2.03-1.38-3.42-1.38h-0.37c-1.29,0-2.49,0.46-3.42,1.38c-0.92,0.92-1.38,2.03-1.38,3.42
	c0,1.75,0.65,3.14,1.85,4.15c2.12,1.85,3.6,3.05,4.34,3.79c0.55,0.46,0.74,1.11,0.74,1.94c0,0.46-0.18,0.92-0.55,1.29
	c-0.37,0.37-0.74,0.55-1.29,0.55h-0.37c-0.46,0-0.92-0.18-1.29-0.55c-0.37-0.37-0.55-0.74-0.55-1.29v-1.66
	c0-0.18-0.09-0.37-0.28-0.37h-2.4c-0.18,0-0.28,0.09-0.28,0.37v1.66c0,1.29,0.46,2.49,1.38,3.42c0.92,0.92,2.03,1.38,3.42,1.38h0.37
	c1.29,0,2.49-0.46,3.42-1.38C649.26,277.82,649.72,276.71,649.72,275.33L649.72,275.33z M662.64,263.51v-2.4
	c0-0.18-0.09-0.28-0.28-0.28h-9.33c-0.18,0-0.28,0.09-0.28,0.28v2.4c0,0.18,0.09,0.28,0.28,0.28h2.86c0.18,0,0.37,0.09,0.37,0.28
	v15.51c0,0.18,0.09,0.28,0.28,0.28h2.4c0.18,0,0.28-0.09,0.28-0.28v-15.42c0-0.18,0.09-0.28,0.28-0.28h2.86
	C662.55,263.88,662.64,263.79,662.64,263.51L662.64,263.51z M668.55,279.67V261.2c0-0.18-0.09-0.28-0.28-0.28h-2.4
	c-0.18,0-0.28,0.09-0.28,0.28v18.47c0,0.18,0.09,0.28,0.28,0.28h2.4C668.46,279.94,668.55,279.85,668.55,279.67L668.55,279.67z
	 M681.48,263.51v-2.4c0-0.18-0.09-0.28-0.28-0.28h-9.33c-0.18,0-0.28,0.09-0.28,0.28v2.4c0,0.18,0.09,0.28,0.28,0.28h2.86
	c0.18,0,0.37,0.09,0.37,0.28v15.51c0,0.18,0.09,0.28,0.28,0.28h2.4c0.18,0,0.28-0.09,0.28-0.28v-15.42c0-0.18,0.09-0.28,0.28-0.28
	h2.86C681.39,263.88,681.48,263.79,681.48,263.51L681.48,263.51z M694.41,275.42V261.2c0-0.18-0.09-0.28-0.28-0.28h-2.4
	c-0.18,0-0.28,0.09-0.28,0.28v14.22c0,0.46-0.18,0.92-0.55,1.29s-0.74,0.55-1.29,0.55h-0.37c-0.46,0-0.92-0.18-1.29-0.55
	c-0.37-0.37-0.55-0.74-0.55-1.29V261.2c0-0.18-0.09-0.28-0.28-0.28h-2.4c-0.18,0-0.28,0.09-0.28,0.28v14.22
	c0,1.29,0.46,2.49,1.38,3.42c0.92,0.92,2.03,1.38,3.42,1.38h0.37c1.29,0,2.49-0.46,3.42-1.38
	C693.94,277.82,694.41,276.71,694.41,275.42L694.41,275.42z M707.33,263.51v-2.4c0-0.18-0.09-0.28-0.28-0.28h-9.33
	c-0.18,0-0.28,0.09-0.28,0.28v2.4c0,0.18,0.09,0.28,0.28,0.28h2.86c0.18,0,0.37,0.09,0.37,0.28v15.51c0,0.18,0.09,0.28,0.28,0.28
	h2.4c0.18,0,0.28-0.09,0.28-0.28v-15.42c0-0.18,0.09-0.28,0.28-0.28h2.86C707.24,263.88,707.33,263.79,707.33,263.51L707.33,263.51z
	 M544.65,284.65v2.12h2.59v-2.12H544.65L544.65,284.65z M551.66,284.65v2.12h2.59v-2.12H551.66L551.66,284.65z M230.91,239.69
	c-30.56-9.05-63.71,6.46-75.9,36.66c-11.36,28.07-0.92,59.55,23.45,75.71l-8.4,18c-35.09-22.25-49.12-67.68-31.12-106.46
	c18.1-38.69,61.86-57.24,101.56-44.6C238.29,223.81,232.57,236.18,230.91,239.69L230.91,239.69z M235.71,244.12
	c30.75,12.46,45.61,47.46,33.24,78.2c-12.46,30.75-47.46,45.61-78.2,33.24c-30.75-12.46-45.61-47.46-33.24-78.2
	C169.97,246.61,204.96,231.75,235.71,244.12L235.71,244.12z M198.78,360.92c29.64,7.02,60.75-8.4,72.57-37.58
	c10.89-26.96,1.66-57.15-20.59-73.77l9.79-21.14c34.81,22.34,48.66,67.59,30.65,106.09c-17.91,38.69-61.49,57.15-101.01,44.87
	L198.78,360.92L198.78,360.92z M247.71,247.44c-3.42-2.22-7.11-4.15-10.99-5.72c-0.74-0.28-1.48-0.55-2.22-0.83
	c2.31-4.99,10.25-22.16,10.25-22.16c0.46-1.02,0-2.12-1.11-2.49c-41.92-14.5-88.91,4.71-108.03,45.89
	c-19.2,41.09-3.69,89.47,34.35,112.27c0.92,0.55,2.12,0.18,2.59-0.83l9.05-19.48c2.59,1.48,5.26,2.77,8.03,3.97
	c1.85,0.74,3.6,1.38,5.45,1.94l-9.23,19.76c-0.46,1.02,0,2.12,1.11,2.49c41.83,14.13,88.45-5.08,107.47-46.07
	c19.11-40.9,3.88-89.01-33.79-111.9c-1.02-0.55-2.12-0.18-2.68,0.83L247.71,247.44L247.71,247.44z"/>
<path class="st1" d="M326.65,260.83h12.19v56.14c0,2.4,0.83,4.43,2.49,6c1.66,1.66,3.6,2.49,5.91,2.49h39.98v12.1h-39.98
	c-2.86,0-5.54-0.55-8.03-1.57c-2.49-1.11-4.62-2.59-6.46-4.43c-1.85-1.85-3.32-4.06-4.43-6.56c-1.11-2.49-1.66-5.17-1.66-8.03
	V260.83L326.65,260.83z M453.05,260.83c-3.32,0-6.37,0.55-9.23,1.75s-5.36,2.86-7.48,4.99c-2.12,2.12-3.79,4.62-5.08,7.48
	c-1.29,2.86-1.85,5.82-1.85,9.05v53.46h12.19v-53.37c0-3.14,1.11-5.82,3.32-8.03c2.22-2.22,4.89-3.32,8.13-3.32h30.56
	c1.57,0,3.05,0.28,4.43,0.92s2.59,1.38,3.6,2.49c1.02,1.11,1.85,2.22,2.49,3.6c0.55,1.38,0.92,2.86,0.92,4.43v53.37h12v-53.46
	c0-3.23-0.65-6.19-1.85-9.05s-2.86-5.36-5.08-7.48c-2.12-2.12-4.62-3.79-7.48-4.99c-2.86-1.2-5.91-1.75-9.05-1.75h-30.56V260.83z
	 M402.27,260.83v76.73h12.19v-76.73H402.27L402.27,260.83z M220.75,289.45c7.76-1.85,16.34-4.99,25.21-6.65
	c-2.31,5.72-4.8,11.91-7.85,18.65c-2.68,5.82-11.73,15.7-26.59,18.74C213.64,310.04,216.97,299.61,220.75,289.45L220.75,289.45z
	 M193.7,320.39c-7.48-1.2-15.79-4.15-24.93-9.33c19.39-18.28,16.53-31.85,31.21-22.71c4.8,2.95,10.34,3.14,16.53,2.03
	c-5.82,10.53-12.56,20.4-20.13,27.51L193.7,320.39L193.7,320.39z M159.54,345.96c41.64-13.3,55.86-10.71,73.59,18.65
	c-12.28-31.85-25.21-24.19-22.44-39.89l0.18-0.92c13.11-2.59,21.61-9.05,27.15-3.32c7.66,7.85,7.39,19.02,24.01,29.55
	c-14.96-13.57-23.82-33.89-11.91-34.25c8.4-0.28,22.07,4.62,28.81,8.96c-10.8-8.86-21.05-11.91-26.31-25.11
	c-2.49-6.28-2.95-12.1-2.12-17.64c9.69-1.2,19.67-0.09,29.18,6.74c-8.03-8.31-18.28-10.16-28.71-9.42
	c2.03-9.33,7.29-18.1,11.91-27.51c-7.29,8.31-11.45,17.27-15.79,27.98c-8.68,1.11-17.36,3.79-24.84,5.63
	c7.02-18,15.42-34.9,21.7-48.1c-6.28,7.02-14.31,28.53-25.21,48.94c-13.48,2.95-21.79,1.66-16.9-19.67
	c2.49-10.62,8.49-15.88,19.48-33.42c-9.23,7.94-28.35,38.32-42.84,37.3c-14.96-1.11-8.59-3.6-25.94-3.32
	c15.23,3.51,20.68,2.95,27.51,12.93c4.52,6.74-3.88,19.02-13.76,29.55c-6.74-4.15-13.94-9.51-21.51-16.34
	c7.11,7.57,13.76,13.48,19.94,18c-6.74,6.92-13.85,12.93-17.82,15.79c8.49-4.8,15.05-9.6,20.13-14.13c8.68,6,16.43,9.23,23.36,10.8
	C178,334.97,171.35,340.42,159.54,345.96L159.54,345.96z"/>
</svg>
